<?xml version="1.0" standalone="no"?>
<!DOCTYPE svg PUBLIC "-//W3C//DTD SVG 20010904//EN"
 "http://www.w3.org/TR/2001/REC-SVG-20010904/DTD/svg10.dtd">
<svg version="1.0" xmlns="http://www.w3.org/2000/svg"
 width="1024.000000pt" height="1024.000000pt" viewBox="0 0 1024.000000 1024.000000"
 preserveAspectRatio="xMidYMid meet">

<g transform="translate(0.000000,1024.000000) scale(0.100000,-0.100000)"
fill="#000000" stroke="none">
<path d="M2380 6998 l0 -893 71 3 71 4 -6 30 c-3 17 -7 117 -8 222 l-2 191 -6
-155 c-4 -131 -6 -147 -13 -100 -5 30 -8 83 -8 118 0 34 -5 62 -10 62 -6 0 -8
4 -5 8 3 5 -1 9 -9 9 -8 0 -15 -4 -15 -9 0 -4 -7 -8 -15 -8 -9 0 -15 -9 -14
-22 1 -16 3 -18 6 -6 4 15 6 15 24 -3 18 -18 22 -37 7 -32 -5 2 -8 -2 -8 -7 0
-15 -27 -12 -33 3 -6 17 -9 218 -8 727 0 630 -1 580 17 573 8 -3 13 -12 10
-19 -3 -8 1 -14 9 -14 8 0 15 -4 15 -10 0 -5 6 -10 13 -10 7 0 14 14 15 32 2
18 7 37 12 42 7 7 11 -17 12 -64 l2 -75 5 75 c5 67 8 75 26 73 11 -1 24 5 28
13 4 8 16 14 25 13 14 0 13 -2 -3 -8 -14 -6 1 -10 52 -16 39 -4 76 -4 81 -1 5
3 54 5 108 5 54 1 124 1 154 2 30 1 62 1 70 1 32 -1 375 -3 385 -2 6 1 1 6
-10 11 l-20 9 20 -3 c11 -2 19 -8 18 -15 -3 -15 3002 -15 3031 0 10 6 16 6 13
1 -9 -14 1101 -9 1115 5 7 7 19 12 28 11 10 0 9 -3 -5 -9 -15 -7 -8 -9 30 -11
28 -1 58 -3 68 -2 16 0 17 -39 17 -664 l0 -664 23 7 c12 4 30 16 39 26 9 11
22 17 27 13 7 -4 11 11 11 44 0 28 -5 51 -12 53 -6 2 -12 12 -14 21 -1 9 2 15
7 11 5 -3 6 -10 3 -16 -4 -7 -2 -8 4 -4 15 9 16 66 1 66 -5 0 -8 4 -5 9 4 5
-7 4 -23 -2 -21 -8 -27 -15 -21 -22 7 -8 5 -12 -5 -12 -12 0 -15 14 -15 61 -1
220 -2 883 -1 937 1 59 3 67 22 72 14 4 19 1 16 -7 -3 -7 5 -12 22 -13 14 0
18 1 9 4 -22 5 -24 39 -3 47 11 4 15 21 15 66 0 47 3 60 15 60 10 0 15 9 14
28 -1 22 -2 24 -7 7 -5 -14 -14 -19 -32 -18 -14 2 -60 4 -102 5 -43 1 -78 6
-78 11 0 5 -5 5 -13 -1 -14 -12 -147 -13 -147 -1 0 4 8 10 18 12 9 3 -23 5
-73 5 -56 0 -79 -3 -60 -7 l30 -7 -33 -8 c-27 -6 -36 -4 -47 11 -7 10 -17 15
-21 10 -4 -4 -2 -7 5 -7 7 0 9 -4 6 -10 -8 -13 -55 -13 -55 -1 0 5 8 12 18 14
9 3 -23 5 -73 5 -59 0 -81 -3 -65 -8 21 -7 22 -8 5 -10 -11 0 -38 -3 -60 -5
-50 -6 -84 3 -64 16 9 6 1 9 -26 9 -27 0 -35 -3 -26 -9 11 -7 9 -10 -8 -16
-27 -8 -41 2 -21 15 11 7 3 10 -25 9 -22 0 -34 -3 -27 -6 41 -16 -14 -22 -218
-21 -147 0 -233 4 -237 11 -3 5 -2 7 3 4 6 -3 16 -2 24 4 11 6 3 9 -25 8 -22
0 -34 -3 -27 -6 20 -8 14 -23 -9 -23 -15 0 -19 5 -15 15 7 19 -8 20 -23 1 -9
-11 -63 -13 -275 -12 -146 0 -268 4 -272 8 -4 5 25 7 65 7 40 -1 75 2 78 5 4
3 -77 6 -178 5 -101 0 -175 -4 -164 -8 19 -8 19 -9 -5 -16 -14 -5 -43 -7 -65
-6 -22 2 -98 3 -168 3 -112 0 -126 1 -110 13 16 13 14 14 -27 15 -29 0 -40 -3
-31 -9 25 -16 -6 -20 -142 -18 -126 2 -158 7 -124 20 6 3 -24 5 -68 5 -77 -1
-78 -2 -25 -8 30 -4 53 -8 50 -9 -14 -8 -190 -8 -190 -1 0 5 19 11 43 13 23 2
-12 4 -78 4 -66 1 -114 -1 -107 -4 21 -8 13 -23 -12 -23 -14 0 -32 7 -40 16
-9 8 -26 13 -38 11 l-23 -4 23 -2 c12 0 22 -5 22 -11 0 -12 -117 -13 -124 -1
-3 5 12 8 33 7 22 0 37 2 34 7 -2 4 -104 7 -226 7 -128 0 -216 -4 -208 -9 10
-6 10 -10 1 -16 -15 -10 -62 3 -55 15 3 6 -4 10 -17 10 -17 0 -19 -3 -9 -9 8
-5 9 -11 3 -15 -15 -9 -192 -4 -192 6 0 5 36 8 80 6 43 -1 82 1 85 4 4 4 -82
7 -192 7 -134 1 -193 -2 -183 -9 19 -12 18 -12 -105 -15 -91 -2 -97 -1 -70 11
30 13 29 13 -25 13 -30 0 -49 -3 -42 -6 31 -12 4 -18 -93 -21 -71 -2 -105 0
-105 8 0 7 -6 8 -19 1 -20 -11 -84 -13 -116 -3 -17 5 -16 7 10 13 22 5 15 7
-30 7 -33 0 -54 -2 -47 -5 17 -7 5 -23 -19 -23 -21 0 -26 16 -6 23 6 3 -10 6
-37 6 -33 1 -56 -5 -68 -16 -18 -16 -19 -16 -13 3 6 17 6 17 -5 2 -9 -15 -26
-18 -95 -18 -50 0 -85 -4 -85 -10 0 -15 -42 -11 -64 5 -16 12 -22 12 -28 2 -6
-9 -8 -9 -8 1 0 6 -4 12 -10 12 -5 0 -10 -7 -10 -15 0 -22 -40 -19 -41 3 -1 9
-1 20 0 25 0 4 -3 7 -9 7 -7 0 -10 -304 -10 -892z m450 872 c0 -12 -17 -12
-45 0 -17 7 -15 9 13 9 17 1 32 -3 32 -9z m800 0 c-20 -13 -40 -13 -40 0 0 6
12 10 28 10 21 0 24 -2 12 -10z m60 0 c-19 -13 -30 -13 -30 0 0 6 10 10 23 10
18 0 19 -2 7 -10z m480 0 c-20 -13 -103 -13 -95 0 3 6 30 10 58 10 37 0 48 -3
37 -10z m170 6 c0 -3 -4 -8 -10 -11 -5 -3 -10 -1 -10 4 0 6 5 11 10 11 6 0 10
-2 10 -4z m320 0 c0 -3 -4 -8 -10 -11 -5 -3 -10 -1 -10 4 0 6 5 11 10 11 6 0
10 -2 10 -4z m1135 -6 c-3 -5 -37 -10 -75 -10 -38 0 -72 5 -75 10 -4 6 23 10
75 10 52 0 79 -4 75 -10z m1420 0 c18 -8 17 -9 -7 -9 -15 -1 -30 4 -33 9 -7
12 12 12 40 0z m265 2 c0 -5 -16 -9 -35 -10 -19 -1 -35 3 -35 8 0 6 16 10 35
10 19 0 35 -4 35 -8z m-4330 -48 c0 -2 -7 -4 -15 -4 -8 0 -15 4 -15 10 0 5 7
7 15 4 8 -4 15 -8 15 -10z m30 12 c0 -3 -4 -8 -10 -11 -5 -3 -10 -1 -10 4 0 6
5 11 10 11 6 0 10 -2 10 -4z m145 -6 c-27 -11 -45 -12 -45 -2 0 5 15 9 33 9
26 1 28 -1 12 -7z m-162 -67 c-7 -2 -21 -2 -30 0 -10 3 -4 5 12 5 17 0 24 -2
18 -5z m185 0 c-10 -2 -28 -2 -40 0 -13 2 -5 4 17 4 22 1 32 -1 23 -4z m49 1
c-3 -3 -12 -4 -19 -1 -8 3 -5 6 6 6 11 1 17 -2 13 -5z m4320 0 c-3 -3 -12 -4
-19 -1 -8 3 -5 6 6 6 11 1 17 -2 13 -5z m83 -1186 c0 -11 -7 -18 -20 -18 -13
0 -20 7 -20 18 0 11 7 18 20 18 13 0 20 -7 20 -18z m-5302 -398 c-1 -33 -5
-60 -9 -60 -3 0 -5 27 -5 60 0 33 4 60 9 60 4 0 6 -27 5 -60z"/>
<path d="M3233 7883 c9 -2 23 -2 30 0 6 3 -1 5 -18 5 -16 0 -22 -2 -12 -5z"/>
<path d="M5053 7883 c9 -2 23 -2 30 0 6 3 -1 5 -18 5 -16 0 -22 -2 -12 -5z"/>
<path d="M5458 7883 c12 -2 30 -2 40 0 9 3 -1 5 -23 4 -22 0 -30 -2 -17 -4z"/>
<path d="M5568 7883 c7 -3 16 -2 19 1 4 3 -2 6 -13 5 -11 0 -14 -3 -6 -6z"/>
<path d="M6013 7883 c9 -2 23 -2 30 0 6 3 -1 5 -18 5 -16 0 -22 -2 -12 -5z"/>
<path d="M6083 7883 c15 -2 37 -2 50 0 12 2 0 4 -28 4 -27 0 -38 -2 -22 -4z"/>
<path d="M6168 7883 c6 -2 18 -2 25 0 6 3 1 5 -13 5 -14 0 -19 -2 -12 -5z"/>
<path d="M6263 7883 c9 -2 25 -2 35 0 9 3 1 5 -18 5 -19 0 -27 -2 -17 -5z"/>
<path d="M6500 7882 c0 -4 9 -8 20 -9 11 -1 18 2 15 8 -7 11 -35 12 -35 1z"/>
<path d="M6593 7883 c9 -2 23 -2 30 0 6 3 -1 5 -18 5 -16 0 -22 -2 -12 -5z"/>
<path d="M6642 7885 c10 -11 45 -13 59 -4 10 6 2 9 -25 9 -22 0 -37 -2 -34 -5z"/>
<path d="M6808 7881 c12 -7 62 -4 62 5 0 2 -17 4 -37 4 -24 0 -33 -3 -25 -9z"/>
<path d="M7068 7883 c7 -3 16 -2 19 1 4 3 -2 6 -13 5 -11 0 -14 -3 -6 -6z"/>
<path d="M4309 7623 c-15 -16 -145 -95 -290 -177 -145 -82 -316 -179 -379
-216 l-115 -66 -3 -372 c-2 -327 0 -372 13 -372 8 0 16 1 17 3 1 1 5 164 8
362 l5 360 90 53 c50 29 216 124 370 211 255 145 281 158 300 145 17 -11 25
-11 49 1 27 14 32 12 244 -113 119 -71 274 -161 343 -200 185 -106 169 -79
169 -297 0 -158 2 -185 15 -185 13 0 15 26 15 170 0 155 2 173 19 192 30 32 1
83 -41 73 -17 -4 -62 17 -173 83 -82 49 -240 142 -350 206 -110 65 -208 128
-218 142 -24 32 -56 30 -88 -3z"/>
<path d="M6348 7544 c-7 -15 -33 -36 -62 -51 -28 -14 -179 -99 -336 -188 -157
-89 -304 -172 -327 -184 l-43 -21 0 -225 c0 -152 3 -225 11 -225 5 0 7 -4 4
-10 -3 -5 0 -10 8 -10 11 0 13 17 10 83 -2 45 0 147 4 225 l8 144 359 203
c293 165 363 201 377 192 13 -8 23 -7 42 6 20 13 27 14 43 3 25 -18 639 -374
687 -398 l37 -20 0 -285 c0 -189 4 -291 11 -305 23 -43 29 11 29 274 0 167 4
269 10 273 6 3 10 17 10 29 0 18 -14 30 -62 56 -83 44 -595 339 -670 387 -21
12 -42 23 -47 23 -5 0 -16 11 -25 25 -22 34 -63 34 -78 -1z"/>
<path d="M7862 7410 c0 -14 2 -19 5 -12 2 6 2 18 0 25 -3 6 -5 1 -5 -13z"/>
<path d="M7862 7310 c0 -19 2 -27 5 -17 2 9 2 25 0 35 -3 9 -5 1 -5 -18z"/>
<path d="M2501 7164 c0 -11 3 -14 6 -6 3 7 2 16 -1 19 -3 4 -6 -2 -5 -13z"/>
<path d="M7863 7035 c0 -44 2 -61 4 -37 2 23 2 59 0 80 -2 20 -4 1 -4 -43z"/>
<path d="M2501 7004 c0 -11 3 -14 6 -6 3 7 2 16 -1 19 -3 4 -6 -2 -5 -13z"/>
<path d="M7791 6944 c0 -11 3 -14 6 -6 3 7 2 16 -1 19 -3 4 -6 -2 -5 -13z"/>
<path d="M7827 6941 c-4 -17 -3 -21 5 -13 5 5 8 16 6 23 -3 8 -7 3 -11 -10z"/>
<path d="M7861 6924 c0 -11 3 -14 6 -6 3 7 2 16 -1 19 -3 4 -6 -2 -5 -13z"/>
<path d="M2463 6865 c0 -8 4 -15 9 -15 4 0 8 4 8 9 0 6 -4 12 -8 15 -5 3 -9
-1 -9 -9z"/>
<path d="M7773 6867 c-3 -6 -1 -7 5 -3 5 3 13 0 15 -6 4 -10 6 -10 6 0 1 10 6
10 22 1 17 -9 20 -8 17 3 -5 15 -56 20 -65 5z"/>
<path d="M7861 6814 c0 -11 3 -14 6 -6 3 7 2 16 -1 19 -3 4 -6 -2 -5 -13z"/>
<path d="M2450 6797 c0 -19 16 -31 24 -18 3 5 -1 14 -9 21 -12 10 -15 10 -15
-3z"/>
<path d="M4897 6746 c-4 -10 -5 -33 -1 -51 6 -34 -11 -59 -22 -31 -8 22 -31
20 -43 -3 -8 -14 -4 -28 16 -59 15 -22 30 -39 34 -36 4 2 10 0 14 -6 3 -6 -1
-13 -10 -16 -9 -4 -14 -13 -11 -21 10 -25 -3 -32 -34 -20 -24 9 -28 15 -24 34
4 13 2 23 -4 23 -6 0 -8 9 -5 20 7 26 -7 25 -51 -2 -27 -18 -35 -30 -36 -53 0
-16 -4 -36 -9 -44 -7 -11 -11 -10 -22 7 -10 16 -16 18 -27 10 -10 -9 -22 -3
-51 26 -34 33 -39 35 -51 21 -11 -13 -10 -22 6 -53 10 -20 20 -40 22 -43 1 -4
-15 -7 -38 -7 -50 -1 -62 -8 -58 -35 2 -17 -3 -23 -27 -27 -16 -3 -30 -11 -29
-18 2 -28 5 -32 19 -32 9 0 18 -7 21 -15 4 -10 14 -13 30 -9 34 9 30 -12 -3
-22 -39 -10 -93 -11 -93 0 0 4 -9 6 -20 3 -22 -6 -27 12 -8 31 9 9 5 12 -20
12 -18 0 -32 -4 -32 -10 0 -5 -8 -10 -18 -10 -9 0 -33 -13 -53 -29 -20 -17
-48 -33 -63 -37 -21 -5 -24 -9 -15 -20 7 -8 10 -16 8 -18 -13 -13 -95 -1 -105
15 -3 5 2 6 10 3 8 -3 23 -1 33 5 10 6 13 11 7 11 -7 0 -15 11 -18 25 -4 17
-11 23 -24 19 -9 -3 -5 2 11 11 32 19 34 30 6 45 -16 9 -26 8 -44 -4 -34 -22
-38 -20 -31 14 6 34 1 37 -26 13 -18 -16 -18 -16 -12 2 5 13 4 16 -4 11 -7 -4
-12 -16 -12 -26 0 -10 -4 -22 -10 -25 -6 -4 -10 5 -10 20 0 32 -20 29 -36 -4
-6 -12 -15 -23 -20 -24 -5 -1 -7 -10 -6 -19 5 -27 -33 -22 -56 7 l-20 25 -20
-32 c-11 -18 -21 -39 -24 -47 -2 -7 -10 5 -18 28 -9 28 -19 41 -32 41 -10 0
-18 5 -18 12 0 6 -7 4 -18 -5 -27 -24 -35 -21 -29 11 5 22 1 29 -21 40 -39 18
-44 15 -37 -19 5 -22 4 -29 -4 -25 -7 4 -11 0 -11 -11 0 -23 -18 -43 -39 -43
-12 0 -12 3 -3 12 17 17 15 55 -4 62 -29 11 -44 6 -44 -15 0 -12 -8 -23 -20
-26 -13 -4 -20 -14 -20 -30 0 -19 -5 -23 -22 -22 -58 5 -76 -11 -41 -36 14
-11 9 -12 -31 -9 -27 2 -54 8 -61 14 -17 14 -25 2 -25 -39 0 -20 -5 -43 -10
-51 -9 -13 -10 -13 -10 0 0 9 -9 22 -20 30 -11 8 -20 23 -20 33 0 25 -21 30
-55 13 -16 -9 -35 -12 -44 -7 -51 24 -79 -14 -41 -54 l23 -24 -27 -7 c-14 -3
-26 -11 -27 -18 -1 -17 -6 -41 -13 -64 -7 -20 15 -52 35 -52 5 0 1 -9 -9 -20
-23 -25 -50 -17 -58 16 -4 15 -13 24 -25 24 -10 0 -19 7 -19 15 0 17 -25 20
-35 5 -3 -5 -15 -15 -26 -21 -16 -8 -20 -7 -18 3 5 37 -2 57 -16 52 -8 -4 -15
-12 -15 -20 0 -8 -4 -14 -10 -14 -5 0 -10 9 -10 21 0 15 -4 19 -16 15 -9 -3
-23 -6 -31 -6 -11 0 -14 -7 -9 -25 6 -24 4 -25 -24 -20 -34 6 -34 6 -21 -29
15 -38 -11 -54 -39 -24 -11 13 -30 24 -41 24 -17 1 -19 -3 -15 -22 7 -25 -7
-31 -33 -15 -23 15 -38 2 -33 -26 3 -18 1 -24 -7 -19 -6 4 -11 2 -11 -3 0 -6
8 -11 18 -12 9 0 -1 -9 -23 -19 -53 -25 -55 -24 -55 8 -1 38 -20 58 -54 58
-24 -1 -30 -6 -33 -29 -5 -35 -42 -75 -53 -57 -12 20 -32 1 -24 -23 6 -19 5
-20 -8 -10 -13 12 -54 21 -100 22 -10 1 -18 8 -18 16 0 32 -36 10 -45 -28 -9
-36 -34 -35 -41 3 -4 17 -10 30 -15 30 -4 0 -11 9 -14 20 -12 39 -26 19 -24
-35 1 -30 -1 -58 -4 -62 -4 -3 -7 -1 -7 5 0 7 -7 12 -15 12 -8 0 -15 3 -15 8
-1 17 -28 41 -55 48 -28 7 -28 6 -22 -29 5 -33 4 -36 -16 -34 -15 1 -21 -3
-20 -13 2 -10 -9 -19 -30 -25 -29 -9 -32 -14 -32 -48 -1 -30 3 -36 15 -31 17
6 20 7 37 5 7 0 10 -8 7 -16 -4 -8 -1 -15 5 -15 6 0 11 10 11 21 0 18 2 19 15
9 14 -12 27 -11 70 5 12 5 5 -6 -19 -28 -21 -20 -36 -43 -33 -50 3 -7 -6 -23
-19 -36 -13 -13 -24 -29 -24 -37 0 -20 -14 -17 -35 6 -19 21 -55 27 -55 10 0
-21 -41 -9 -68 19 -22 24 -31 28 -49 21 -13 -5 -23 -18 -23 -29 0 -11 -6 -26
-14 -34 -9 -9 -11 -19 -5 -28 11 -17 11 -29 2 -29 -12 1 -63 77 -63 94 0 19
-16 21 -24 4 -3 -9 -8 -8 -16 4 -6 10 -11 21 -12 25 -2 12 -45 43 -58 43 -10
0 -10 -3 0 -15 10 -12 9 -15 -4 -15 -10 0 -14 -5 -11 -10 4 -6 -5 -20 -18 -32
l-24 -22 29 -24 c16 -13 27 -27 24 -30 -3 -2 -1 -13 5 -23 5 -11 6 -19 2 -18
-4 1 -21 1 -38 0 -27 -1 -28 -3 -13 -15 13 -10 15 -15 6 -24 -18 -18 -32 -15
-57 11 -24 26 -84 36 -75 12 3 -7 12 -16 20 -19 8 -3 14 -15 14 -26 0 -17 -3
-19 -19 -11 -10 6 -21 8 -24 5 -9 -10 4 -34 19 -34 8 0 14 -4 14 -9 0 -10 -56
-25 -83 -22 -9 1 -17 -3 -17 -9 0 -6 -12 -21 -27 -34 -24 -21 -26 -26 -13 -41
12 -14 12 -18 -1 -26 -8 -5 -20 -9 -28 -9 -16 0 -40 -29 -41 -47 0 -7 7 -13
16 -13 8 0 13 -4 10 -9 -3 -5 13 -11 36 -15 40 -7 41 -7 20 -22 -28 -19 -128
-15 -124 5 2 8 0 21 -3 29 -4 12 -8 12 -20 2 -20 -17 -32 -5 -15 15 10 12 10
15 -3 15 -8 0 -17 -7 -21 -15 -8 -22 -25 -18 -19 5 3 11 0 20 -6 20 -5 0 -17
12 -25 28 -12 23 -16 24 -21 10 -4 -9 -13 -14 -21 -11 -17 6 -31 -26 -16 -36
7 -4 15 -22 18 -41 7 -30 5 -33 -12 -26 -10 4 -24 9 -31 10 -7 1 -16 5 -19 9
-12 12 -24 8 -24 -8 0 -9 -10 -15 -25 -16 -55 -3 -62 -10 -36 -33 11 -10 17
-24 14 -32 -3 -8 0 -14 6 -14 6 0 11 -4 11 -9 0 -13 -38 -25 -80 -26 -34 0
-34 0 -31 -43 2 -40 1 -43 -18 -37 -23 7 -26 -1 -11 -40 9 -23 8 -25 -9 -15
-25 13 -53 14 -32 1 20 -13 2 -34 -25 -28 -17 3 -25 -1 -31 -17 -4 -12 -6 -25
-5 -29 2 -5 -9 -17 -22 -28 -28 -22 -25 -49 5 -49 10 0 19 -4 19 -10 0 -5 -4
-10 -9 -10 -5 0 -12 -8 -16 -19 -3 -10 -14 -29 -25 -41 -16 -18 -23 -20 -34
-11 -11 10 -17 8 -29 -9 -14 -21 -16 -21 -41 -5 -31 21 -46 13 -46 -26 0 -25
-8 -33 -55 -60 -59 -33 -66 -44 -36 -54 31 -9 34 -34 6 -45 -32 -12 -32 -27 0
-42 27 -12 29 -16 16 -37 -6 -9 -5 -19 2 -27 10 -10 16 -9 31 4 15 14 13 7 -8
-35 -31 -63 -31 -62 -6 -56 12 3 20 0 20 -7 0 -9 7 -7 20 5 11 10 20 16 21 14
0 -2 2 -17 4 -34 2 -16 11 -35 20 -41 8 -6 15 -16 15 -23 0 -14 46 -7 66 10 8
7 13 17 11 23 -3 7 9 10 33 8 27 -3 38 0 37 10 -2 48 3 59 24 53 15 -5 22 -2
26 13 6 26 55 61 82 59 14 -1 17 -5 11 -11 -6 -6 -10 -29 -10 -53 0 -39 2 -43
25 -43 13 0 28 7 33 16 5 9 12 12 15 7 4 -6 -3 -19 -13 -31 -11 -12 -20 -30
-20 -41 0 -24 35 -47 45 -31 4 6 15 8 25 5 10 -3 21 -1 25 5 10 16 19 12 56
-22 23 -23 33 -40 31 -55 -4 -27 13 -31 22 -6 6 14 9 15 15 4 7 -11 13 -11 32
-1 17 10 24 10 27 1 2 -6 8 -8 14 -5 6 4 8 -1 5 -12 -8 -26 6 -87 21 -92 6 -2
12 3 12 12 0 9 5 16 10 16 6 0 10 -5 10 -11 0 -5 5 -7 11 -3 8 4 9 -1 4 -15
-4 -14 0 -32 10 -48 l17 -25 24 42 c13 23 24 49 24 57 0 8 8 13 18 11 21 -3
52 18 52 36 0 6 14 22 30 35 18 14 30 33 30 47 0 21 4 24 33 22 17 -2 40 -11
49 -21 9 -11 21 -16 26 -13 6 3 13 -10 16 -29 4 -19 11 -35 16 -35 6 0 10 -7
10 -16 0 -8 5 -12 10 -9 6 3 10 26 10 50 0 34 3 43 14 39 7 -3 16 2 19 10 4 9
13 16 21 16 7 0 16 7 20 15 8 21 21 19 50 -10 31 -31 36 -31 36 -2 0 40 13 47
95 52 l78 6 -7 -59 c-8 -67 8 -110 37 -104 9 2 17 10 17 18 0 8 5 14 10 14 6
0 10 -7 10 -15 0 -8 6 -15 14 -15 7 0 19 -7 26 -15 7 -8 24 -15 37 -15 22 0
24 -2 13 -15 -7 -8 -19 -15 -26 -15 -8 0 -14 -4 -14 -10 0 -5 -7 -10 -16 -10
-10 0 -14 -7 -12 -22 2 -17 -2 -23 -17 -23 -11 0 -20 -5 -20 -12 0 -17 -12
-26 -36 -27 -29 -1 -37 -26 -11 -33 11 -3 23 -11 26 -18 3 -8 14 -11 28 -8 19
5 21 3 11 -8 -18 -18 -16 -49 2 -49 9 0 15 -9 15 -21 0 -21 9 -22 51 -5 12 5
19 -1 28 -21 22 -55 64 -30 70 42 1 10 12 15 34 15 39 0 51 -8 37 -25 -8 -9
-4 -11 15 -7 15 2 25 0 25 -7 0 -6 7 -11 15 -11 8 0 15 -9 15 -20 0 -26 17
-26 25 0 7 21 25 28 25 9 0 -5 5 -7 11 -4 6 4 8 14 4 23 -3 9 -3 13 1 9 14
-14 64 45 64 75 l0 29 27 -26 c30 -27 63 -33 63 -11 0 9 8 12 25 8 23 -4 25
-1 25 31 0 29 3 34 19 30 11 -3 21 2 24 11 11 27 27 17 27 -16 0 -18 4 -40 10
-48 5 -9 5 -19 -2 -27 -8 -10 -5 -13 11 -13 11 0 21 4 21 9 0 5 15 7 33 6 26
-2 32 -7 30 -24 -2 -12 2 -21 7 -21 6 0 10 -8 10 -17 1 -14 5 -12 21 10 26 34
41 35 33 2 -5 -22 -3 -25 17 -23 17 2 24 -3 29 -22 6 -24 6 -24 18 -5 l12 20
12 -20 c7 -11 14 -31 16 -45 2 -13 5 -26 7 -28 6 -6 55 41 55 53 0 6 15 11 33
11 28 -1 33 -4 29 -19 -7 -27 37 -110 55 -103 8 3 11 1 8 -4 -16 -25 49 11 78
44 17 18 18 19 13 3 -8 -24 14 -17 28 9 6 10 12 21 13 23 2 2 9 -2 18 -9 15
-13 65 -6 65 9 0 4 15 6 33 4 55 -7 71 -7 90 1 14 7 17 3 17 -23 0 -21 5 -31
15 -31 14 0 20 12 16 33 -1 4 6 15 14 24 16 16 17 16 72 -56 10 -14 13 -11 19
17 8 39 23 51 31 24 7 -28 44 -36 50 -11 3 10 9 19 14 19 5 0 4 12 -1 26 -14
36 -3 48 26 29 24 -15 25 -15 39 17 7 18 9 34 4 36 -5 2 -9 8 -9 13 0 9 18 8
98 -6 28 -5 75 -1 137 10 114 22 112 23 145 -98 36 -133 42 -194 36 -352 -6
-167 -17 -221 -45 -230 -11 -3 -25 -13 -32 -21 -10 -12 -9 -18 4 -31 35 -35
400 -32 469 3 39 20 54 50 30 63 -10 6 -28 8 -39 5 -31 -8 -34 6 -18 91 20
102 19 329 0 434 -9 45 -27 114 -40 154 -14 40 -25 79 -25 88 0 25 140 45 210
30 119 -26 263 -130 302 -219 11 -24 18 -45 16 -48 -2 -2 -44 16 -94 40 -110
54 -146 63 -164 41 -12 -15 -11 -19 10 -36 14 -11 51 -33 83 -51 75 -40 141
-99 171 -151 79 -136 77 -369 -5 -582 -32 -84 -75 -165 -87 -165 -4 0 -16 13
-25 30 -19 31 -74 76 -83 67 -3 -3 7 -27 22 -53 26 -45 27 -47 9 -60 -25 -18
-29 -18 -73 9 -48 30 -72 39 -72 26 0 -5 7 -12 16 -16 9 -3 22 -20 29 -37 13
-30 12 -30 -22 -42 -30 -10 -38 -10 -50 2 -8 8 -20 14 -27 14 -8 0 -29 3 -47
6 l-34 6 31 -20 c18 -11 35 -25 38 -30 8 -14 -4 -43 -18 -41 -6 1 -446 1 -978
0 -815 -1 -968 -3 -968 -15 0 -7 -7 -19 -15 -26 -13 -10 -15 -9 -15 8 0 12 -4
24 -10 27 -6 4 -10 187 -10 516 0 309 -4 509 -9 509 -24 0 -61 -21 -61 -35 0
-9 -9 -15 -22 -15 -16 0 -19 -3 -11 -11 8 -8 9 -20 2 -38 l-9 -26 21 25 22 25
-8 -25 c-4 -14 -13 -28 -19 -32 -8 -5 -8 -8 0 -8 6 0 15 -10 20 -22 11 -26 7
-61 -6 -53 -4 3 -3 -6 3 -19 12 -24 31 -25 40 -1 3 7 0 23 -7 37 -10 20 -10
26 2 37 9 9 12 25 9 45 -2 17 1 47 9 66 10 29 12 -46 13 -470 0 -278 -4 -514
-9 -525 -8 -19 -9 -19 -9 3 -1 13 -7 30 -15 38 -17 16 -30 19 -21 4 4 -6 -7
-10 -25 -10 -30 0 -31 1 -25 38 4 20 8 43 10 50 7 22 24 13 27 -15 2 -20 9
-28 23 -28 18 0 20 7 21 57 1 40 -3 58 -12 62 -8 3 -14 13 -14 22 0 10 5 14
15 10 23 -9 19 37 -5 52 -12 7 -20 8 -20 2 0 -5 -9 -10 -20 -10 -11 0 -20 5
-20 10 0 6 7 10 15 10 8 0 15 8 15 17 0 14 3 13 16 -5 8 -12 19 -22 25 -22 10
0 13 128 3 153 -9 24 -64 -1 -64 -30 0 -15 5 -21 14 -17 8 3 17 0 21 -5 3 -6
11 -8 17 -5 7 4 8 2 4 -5 -6 -9 -11 -9 -22 0 -12 10 -13 9 -8 -5 4 -12 0 -16
-15 -16 -21 0 -21 3 -21 248 -1 274 -6 431 -14 440 -3 3 -6 -252 -6 -566 l0
-572 28 0 c20 0 23 3 12 9 -8 6 -18 7 -22 5 -4 -3 -8 5 -7 18 0 13 3 17 6 11
2 -7 15 -13 29 -13 17 0 22 -4 18 -15 -5 -13 291 -15 2632 -13 1452 0 2617 4
2589 7 -57 7 -43 17 28 20 44 2 63 -11 35 -22 -7 -3 18 -6 55 -6 49 -1 66 2
61 10 -4 7 -6 36 -5 65 l2 54 -41 0 c-38 0 -40 2 -40 29 0 34 19 45 38 22 9
-10 11 -11 6 -2 -5 11 -3 13 12 8 18 -7 18 -7 0 8 -19 14 -19 15 7 15 22 0 25
4 21 23 -2 12 -5 66 -6 119 l-2 97 -34 -1 c-25 -1 -30 -4 -18 -10 19 -11 22
-69 4 -65 -8 1 -14 -11 -16 -32 -3 -25 0 -31 10 -25 9 5 8 2 -2 -11 -13 -16
-15 3 -18 185 -2 175 0 206 13 219 14 14 16 14 13 1 -2 -9 6 -16 20 -18 12 -2
22 -7 22 -12 0 -5 -9 -7 -20 -5 -26 5 -26 -11 1 -26 15 -8 19 -8 15 0 -4 6 -2
11 3 11 7 0 11 23 11 54 0 30 5 58 10 61 7 4 10 -127 10 -384 0 -215 3 -391 8
-391 8 0 7 778 -2 787 -3 3 -11 1 -18 -5 -8 -6 -34 -12 -58 -14 l-45 -3 -3
-322 -2 -323 -28 -1 -27 -1 30 -8 c17 -4 24 -8 18 -9 -7 0 -13 -8 -13 -17 0
-11 -6 -14 -22 -8 -13 3 -25 11 -26 15 -2 5 -9 6 -14 3 -7 -4 -8 -2 -4 5 6 9
11 9 22 0 12 -10 13 -9 8 5 -6 15 -82 16 -915 16 -884 0 -909 1 -909 19 0 10
9 21 20 24 11 3 20 10 20 17 0 6 -5 8 -12 3 -7 -4 -24 -9 -38 -10 -14 -1 -38
-5 -54 -9 -25 -6 -28 -4 -23 10 8 20 8 20 -49 -4 -26 -11 -49 -18 -51 -16 -3
3 2 19 10 35 19 37 17 38 -33 6 -39 -25 -56 -21 -44 9 4 11 0 16 -14 16 -11 0
-23 -7 -26 -16 -11 -29 -28 -3 -23 35 l6 36 -20 -24 c-11 -13 -24 -31 -29 -40
-16 -30 -20 -4 -5 34 9 20 14 40 11 43 -9 8 -36 -19 -53 -52 l-16 -30 -34 39
c-74 86 -130 250 -158 460 -21 156 -24 334 -7 392 23 77 71 135 142 171 94 48
147 43 278 -26 126 -65 191 -77 315 -57 48 8 92 17 98 21 7 4 10 -4 9 -22 -3
-48 -1 -56 15 -50 25 9 17 -12 -20 -50 -19 -19 -35 -39 -35 -43 0 -10 39 -11
45 0 13 20 35 8 35 -19 0 -16 3 -32 6 -35 10 -10 44 12 44 28 0 8 5 15 10 15
6 0 10 -4 10 -10 0 -5 9 -14 20 -20 23 -12 60 2 60 24 0 17 28 41 37 32 4 -4
2 -11 -5 -15 -17 -11 5 -62 24 -54 8 3 11 -2 7 -15 -7 -27 15 -38 33 -16 14
18 16 17 42 -13 30 -35 52 -43 52 -18 0 8 9 23 20 32 11 10 20 24 20 33 0 8
10 1 21 -17 24 -38 41 -35 58 12 11 31 17 35 47 35 24 0 34 5 34 15 0 12 4 13
19 5 35 -18 54 -13 49 14 -4 19 1 27 21 36 20 9 22 13 10 21 -12 7 -11 9 3 9
17 0 78 -55 78 -71 0 -14 15 -11 39 10 13 11 20 24 17 30 -4 5 -2 12 3 15 5 3
12 -4 16 -17 4 -13 8 -17 12 -9 2 6 9 12 14 12 6 0 7 -5 3 -12 -4 -7 -3 -8 5
-4 6 4 25 -4 43 -19 32 -27 48 -22 48 17 0 10 4 17 9 15 5 -1 17 7 25 18 15
19 15 18 16 -19 0 -30 3 -37 15 -32 9 3 15 0 15 -9 0 -8 7 -15 15 -15 8 0 15
5 15 11 0 7 11 0 25 -15 28 -30 35 -32 35 -11 0 8 5 15 10 15 6 0 10 -4 10
-10 0 -5 5 -10 10 -10 6 0 10 9 10 20 0 25 30 27 30 3 0 -10 7 -27 15 -37 14
-19 15 -19 35 -1 11 10 21 16 23 14 1 -2 10 -21 20 -42 11 -23 22 -36 30 -33
6 3 19 9 28 12 9 3 20 19 23 36 6 30 6 30 23 9 16 -18 23 -19 58 -11 22 5 50
7 63 3 22 -5 31 10 12 22 -13 8 -13 25 -1 25 5 0 17 -7 25 -16 17 -16 56 -11
56 8 0 5 7 7 16 4 10 -4 22 1 30 11 12 17 14 17 29 -4 9 -13 24 -23 34 -23 24
0 59 -32 53 -48 -6 -17 17 -42 38 -42 10 0 20 6 22 12 3 9 9 8 22 -5 27 -27
43 -19 37 17 -1 5 6 6 15 2 13 -5 14 -2 8 11 -10 22 -12 133 -2 133 4 0 10 -5
13 -11 5 -7 16 -2 31 12 18 17 24 19 24 7 0 -11 8 -13 30 -10 17 2 30 0 30 -6
0 -6 9 -13 20 -17 11 -3 19 -14 17 -23 -1 -9 3 -17 8 -17 6 0 9 3 7 8 -1 4 9
5 24 1 20 -5 26 -2 30 14 5 17 9 18 35 9 16 -6 29 -15 29 -19 0 -4 4 -8 9 -8
4 0 6 11 3 25 -2 15 0 25 7 25 11 0 15 -20 12 -49 -2 -7 2 -11 6 -8 5 3 22 -2
38 -13 15 -10 34 -16 41 -13 8 3 14 0 14 -6 0 -6 -4 -11 -9 -11 -12 0 -21 -54
-10 -61 5 -3 23 -3 41 -1 23 3 34 12 42 33 11 32 28 39 25 12 -3 -35 1 -44 26
-53 19 -7 25 -17 25 -40 0 -23 4 -30 20 -30 16 0 20 7 20 33 0 48 15 66 30 37
11 -21 13 -22 22 -5 8 14 12 15 19 4 6 -10 9 -8 9 8 0 12 -4 25 -10 28 -16 10
-12 55 5 55 22 0 18 31 -5 37 -25 7 -25 19 0 33 12 6 20 21 20 35 0 20 -5 25
-25 25 -14 0 -25 5 -25 11 0 7 -10 9 -25 5 -19 -5 -23 -3 -19 9 4 8 1 15 -5
15 -8 0 -6 11 5 32 19 36 15 75 -15 141 -24 52 -28 86 -5 45 15 -29 51 -40 41
-14 -10 27 32 30 56 6 19 -22 21 -22 34 -4 7 10 13 21 13 26 0 4 7 5 17 1 14
-5 15 -1 10 27 -7 32 -6 32 11 17 27 -25 35 -21 30 13 -3 17 -1 30 4 30 5 0 7
12 6 28 -2 21 1 26 15 24 9 -2 17 2 17 8 0 6 5 8 11 4 6 -3 21 -1 34 6 18 10
23 20 20 46 -1 19 1 34 4 34 4 0 6 30 6 68 0 66 1 67 28 70 15 2 27 8 27 13 0
6 10 10 23 9 36 -3 41 -1 55 21 10 15 10 24 2 34 -6 7 -10 19 -9 27 2 7 -5 30
-14 52 -9 21 -17 44 -17 52 0 18 40 14 70 -7 14 -9 39 -19 55 -21 26 -3 28 -4
13 -19 -35 -34 -1 -75 57 -71 24 2 32 -3 42 -24 11 -24 10 -30 -12 -56 -26
-31 -25 -48 3 -48 24 -1 50 -23 44 -38 -2 -7 1 -19 7 -26 8 -10 7 -17 -4 -26
-8 -7 -15 -18 -15 -25 0 -7 -7 -18 -15 -25 -17 -14 -18 -20 -6 -39 7 -11 13
-10 35 4 25 17 26 17 26 -4 0 -23 35 -30 43 -8 5 12 11 -45 8 -72 -2 -7 2 -10
7 -7 6 3 19 -6 30 -21 17 -23 22 -25 36 -14 9 7 16 19 16 26 0 7 10 19 22 27
20 13 24 13 38 -3 19 -22 66 -37 55 -18 -4 8 2 3 13 -10 11 -14 26 -22 34 -18
16 6 30 52 19 62 -11 12 -29 120 -20 123 5 2 9 15 9 29 0 20 4 24 18 18 9 -4
24 -8 34 -9 9 -1 24 -9 34 -17 14 -11 18 -12 22 -1 3 10 14 4 34 -18 28 -31
30 -32 43 -14 8 11 15 28 15 40 0 11 4 24 9 30 5 5 11 18 13 29 3 17 6 16 23
-12 11 -18 27 -33 36 -33 15 0 15 5 4 54 -7 30 -11 57 -9 59 3 2 20 3 38 0 24
-2 36 1 40 13 7 19 -3 64 -15 64 -18 0 -9 29 11 35 17 6 18 8 6 21 -8 8 -19
14 -25 14 -16 0 -13 15 4 30 21 17 19 40 -4 40 -34 0 -51 11 -51 34 0 12 3 16
8 10 10 -16 51 0 59 23 4 10 16 25 26 33 18 15 18 17 2 30 -9 8 -30 13 -46 12
-29 -2 -40 12 -16 21 9 4 9 7 0 18 -11 11 -15 10 -26 -6 -13 -17 -14 -17 -19
2 -4 16 -12 19 -39 15 -19 -2 -39 -9 -46 -14 -7 -5 -14 -5 -18 2 -3 5 -15 10
-26 10 -11 0 -22 7 -25 15 -4 9 -19 15 -35 15 -43 0 -38 17 14 53 17 12 16 14
-8 47 -14 19 -24 43 -21 53 2 9 -2 24 -10 31 -12 13 -11 16 6 21 23 7 46 45
34 54 -17 12 -35 52 -28 63 5 7 -5 9 -30 6 -30 -3 -36 -1 -36 14 0 24 -22 23
-45 -2 -29 -32 -45 -25 -45 19 0 22 -5 41 -11 43 -17 6 2 38 23 38 13 0 18 6
16 18 -2 10 -13 17 -25 17 -13 0 -28 6 -35 13 -7 7 -18 12 -25 12 -7 0 -13 5
-13 10 0 11 21 13 96 10 55 -2 74 10 49 30 -9 8 -13 21 -9 36 7 26 -5 31 -24
12 -9 -9 -12 -7 -12 10 0 27 1 27 -54 -2 -45 -24 -59 -23 -34 2 7 7 21 12 33
13 11 0 14 3 7 6 -6 2 -9 9 -6 15 5 7 -10 9 -44 6 -57 -6 -67 -2 -50 19 8 10
8 20 -2 38 -17 32 -27 31 -52 0 l-20 -26 -30 32 c-27 28 -33 30 -53 19 -19
-10 -27 -9 -50 6 -23 15 -26 23 -22 54 4 29 1 36 -14 37 -10 1 -23 -5 -30 -13
-6 -8 -26 -14 -45 -14 -18 0 -37 -6 -41 -14 -4 -7 -19 -13 -32 -12 -18 1 -24
-5 -26 -21 -2 -33 -10 -37 -35 -16 -66 55 -63 51 -52 80 23 64 23 63 -13 79
-33 13 -48 34 -25 34 6 0 10 7 10 15 0 8 -6 15 -12 15 -10 0 -9 3 1 9 18 11 4
34 -16 27 -11 -4 -13 -2 -9 9 3 8 9 22 13 31 5 14 1 15 -25 9 -28 -6 -32 -4
-32 14 0 14 -5 19 -15 15 -11 -5 -15 1 -15 19 0 46 -9 58 -33 44 -12 -7 -28
-20 -35 -30 -12 -15 -15 -15 -28 -3 -8 8 -14 18 -14 23 0 4 -5 25 -11 46 -10
37 -29 51 -29 22 0 -8 -6 -15 -14 -15 -9 0 -13 -8 -9 -22 4 -22 4 -22 -8 -3
-7 11 -14 33 -15 50 -1 16 -2 33 -3 37 -1 9 -81 -70 -81 -81 0 -8 -23 -21 -36
-21 -2 0 -4 7 -4 15 0 8 7 15 15 15 13 0 14 4 5 20 -6 11 -8 25 -5 30 4 6 0
13 -9 16 -8 3 -12 12 -9 21 4 9 -1 21 -12 29 -15 11 -22 10 -43 -6 -30 -24
-42 -25 -42 -5 0 9 -7 18 -15 21 -8 4 -15 12 -15 19 0 27 -19 25 -32 -2 -17
-35 -42 -36 -46 -3 -2 14 -8 29 -13 34 -5 6 -9 24 -9 41 0 18 -3 34 -6 38 -10
10 -34 -4 -34 -20 0 -12 -2 -12 -15 1 -8 8 -15 21 -15 30 0 8 -4 17 -9 21 -12
7 -30 -25 -24 -41 2 -6 -3 -17 -12 -24 -13 -11 -15 -7 -15 28 0 22 -3 47 -6
56 -8 20 -34 21 -34 1 0 -8 -6 -15 -14 -15 -14 0 -23 8 -53 44 -14 16 -57 10
-46 -7 4 -7 -9 -8 -39 -4 -43 6 -46 5 -41 -14 5 -19 4 -20 -15 -10 -15 8 -21
8 -25 -2 -3 -9 -10 -7 -25 6 -11 11 -26 16 -31 12 -14 -8 -10 36 4 50 6 6 22
18 38 28 29 18 39 54 12 43 -8 -3 -22 -9 -30 -12 -11 -4 -15 0 -15 15 0 26
-10 26 -61 0 -47 -24 -65 -20 -79 16 -8 22 -13 24 -29 16 -11 -6 -25 -24 -32
-40 -10 -23 -17 -27 -30 -21 -9 5 -19 7 -22 4 -3 -3 -8 9 -12 28 -4 18 -15 38
-24 45 -17 13 -39 18 -28 6 7 -7 -11 -33 -23 -33 -4 0 -13 20 -19 45 -6 25
-15 45 -19 45 -15 0 -32 -24 -32 -44 0 -18 -1 -18 -19 -2 -15 14 -24 15 -40 6
-17 -9 -21 -8 -21 5 0 8 -9 20 -20 27 -11 7 -20 18 -20 25 0 18 -21 16 -48 -3
-19 -13 -22 -13 -22 -1 0 8 -7 17 -15 21 -8 3 -15 16 -15 28 -1 28 -23 60 -41
56 -7 -2 -17 13 -23 34 -6 20 -15 40 -19 44 -11 11 -27 -15 -27 -43 0 -26 -16
-38 -33 -24 -7 5 -27 9 -46 9 -33 -1 -35 -5 -16 -50 5 -13 2 -18 -9 -18 -9 0
-17 -8 -18 -17 0 -10 -2 -24 -2 -31 -1 -8 -9 -19 -19 -26 -9 -7 -17 -21 -17
-30 0 -18 -46 -44 -57 -32 -4 4 -2 16 5 27 7 11 10 24 7 29 -9 14 -35 12 -35
-2 0 -6 -3 -8 -7 -5 -3 4 -12 2 -19 -4 -10 -8 -15 -5 -19 14 -8 29 -29 41 -53
28 -9 -4 -23 -6 -30 -4 -9 4 -11 -2 -7 -20 5 -18 1 -29 -14 -39 -12 -8 -18
-18 -13 -22 4 -4 -6 -4 -21 -1 -23 6 -29 4 -34 -14 -6 -24 -23 -29 -23 -6 0 8
4 15 9 15 15 0 6 32 -14 46 -25 18 -61 18 -69 -1 -7 -19 10 -65 24 -65 6 0 8
-5 4 -11 -4 -8 -9 -8 -17 0 -6 6 -18 11 -28 11 -9 0 -28 9 -42 20 -14 11 -32
20 -40 20 -21 0 -28 26 -15 55 8 18 19 25 40 25 18 0 28 5 28 15 0 16 56 22
62 6 4 -11 48 5 48 19 0 5 -4 10 -10 10 -17 0 1 28 23 35 19 6 20 8 5 12 -24
6 -23 9 20 49 l37 35 -33 -5 c-18 -2 -38 -9 -45 -14 -15 -13 -80 -38 -134 -52
-23 -6 -48 -16 -55 -23 -26 -24 -75 -46 -110 -50 -19 -2 -40 -7 -46 -11 -20
-12 -13 5 15 38 l26 31 -33 3 c-22 2 -39 -3 -54 -17 -29 -27 -34 -26 -47 6
l-10 27 -39 -45 c-22 -24 -39 -47 -40 -51 0 -5 -4 -8 -9 -8 -5 0 -9 21 -9 46
-1 26 -3 48 -5 51 -8 7 -37 -9 -37 -21 0 -30 -23 -34 -49 -10 -14 13 -31 24
-38 24 -7 0 -13 10 -13 22 l0 22 -20 -22 c-26 -27 -50 -28 -50 -3 0 11 -5 23
-10 26 -6 4 -8 16 -5 28 5 19 5 20 -5 5 -16 -26 -67 -24 -75 3 -7 21 -7 21
-28 -2 l-22 -23 -9 32 c-12 43 -36 42 -36 -2 0 -30 -3 -33 -21 -29 -20 6 -21
3 -15 -31 6 -33 5 -37 -11 -34 -10 2 -18 12 -18 23 0 29 -15 51 -25 35 -11
-18 -50 19 -50 47 0 17 -4 21 -17 16 -25 -9 -74 -44 -95 -68 -15 -17 -19 -18
-27 -5 -10 15 -10 16 -26 -35 -8 -26 -35 -18 -35 10 0 15 -7 28 -17 32 -23 8
-31 20 -43 66 -6 20 -15 37 -20 37 -4 0 -23 -23 -40 -52 -18 -28 -38 -58 -46
-65 -8 -8 -14 -22 -14 -30 0 -25 -8 -11 -15 26 -5 27 0 39 25 68 26 29 29 37
18 51 -7 10 -13 18 -14 20 -1 1 -13 -2 -28 -7 -30 -12 -32 -6 -16 48 5 19 8
37 6 39 -12 11 -48 -13 -63 -41 l-16 -32 -9 28 c-6 15 -16 27 -23 27 -7 0 -15
8 -17 18 -3 16 -4 15 -11 -2z m751 -218 c2 -9 -4 -18 -13 -21 -11 -5 -15 0
-15 19 0 28 23 29 28 2z m-808 -38 c0 -5 -4 -10 -10 -10 -5 0 -10 5 -10 10 0
6 5 10 10 10 6 0 10 -4 10 -10z m1455 -230 c3 -5 -1 -10 -9 -10 -9 0 -16 5
-16 10 0 6 4 10 9 10 6 0 13 -4 16 -10z m92 -8 c7 -10 13 -25 13 -34 0 -12 5
-15 16 -11 23 9 35 -17 17 -36 -31 -30 -113 -16 -113 20 0 5 -7 9 -15 9 -8 0
-15 7 -15 16 0 14 3 14 15 4 13 -11 15 -8 15 16 0 24 4 29 27 31 15 0 33 -6
40 -15z m493 2 c0 -8 -5 -12 -10 -9 -6 4 -8 11 -5 16 9 14 15 11 15 -7z
m-3716 -143 c3 -5 -5 -11 -19 -13 -17 -4 -25 -1 -25 8 0 15 36 19 44 5z m3930
-76 c-4 -8 -10 -12 -15 -9 -14 8 -10 24 6 24 9 0 12 -6 9 -15z m876 6 c0 -6
-4 -13 -10 -16 -5 -3 -10 1 -10 9 0 9 5 16 10 16 6 0 10 -4 10 -9z m-4815 -21
c-3 -5 -11 -10 -16 -10 -6 0 -7 5 -4 10 3 6 11 10 16 10 6 0 7 -4 4 -10z
m-147 -128 c2 -7 -3 -12 -12 -12 -9 0 -16 7 -16 16 0 17 22 14 28 -4z m-58
-19 c-8 -3 -23 -12 -32 -21 -10 -8 -18 -11 -18 -6 0 17 23 34 45 33 14 0 16
-2 5 -6z m4705 -3 c8 -13 -15 -13 -35 0 -12 8 -11 10 7 10 12 0 25 -4 28 -10z
m-4778 -72 c-3 -8 -6 -5 -6 6 -1 11 2 17 5 13 3 -3 4 -12 1 -19z m4897 -14 c3
-8 2 -12 -4 -9 -6 3 -10 10 -10 16 0 14 7 11 14 -7z m-5219 -24 c-3 -5 -11
-10 -16 -10 -6 0 -7 5 -4 10 3 6 11 10 16 10 6 0 7 -4 4 -10z m4119 -25 c23
-35 20 -50 -11 -53 -30 -2 -43 -17 -43 -49 0 -13 -4 -23 -10 -23 -5 0 -10 4
-10 8 0 5 -11 15 -25 22 -17 9 -22 17 -15 24 5 5 10 17 10 25 0 21 50 71 71
71 9 0 24 -11 33 -25z m486 -9 c0 -8 -3 -22 -6 -31 -9 -23 -23 0 -17 26 6 22
23 26 23 5z m-4625 -36 c3 -5 -1 -10 -9 -10 -9 0 -16 5 -16 10 0 6 4 10 9 10
6 0 13 -4 16 -10z m545 0 c0 -5 -4 -10 -10 -10 -5 0 -10 5 -10 10 0 6 5 10 10
10 6 0 10 -4 10 -10z m760 -40 c0 -16 6 -31 13 -33 9 -4 8 -8 -3 -16 -12 -8
-18 -3 -32 22 -9 18 -13 36 -8 41 5 5 6 16 2 25 -5 14 -4 14 11 2 9 -7 17 -26
17 -41z m-825 -30 c7 -11 -6 -13 -29 -4 -9 3 -16 13 -16 20 0 11 4 12 19 4 11
-5 23 -15 26 -20z m-175 -64 c0 -3 -4 -8 -10 -11 -5 -3 -10 -1 -10 4 0 6 5 11
10 11 6 0 10 -2 10 -4z m-1213 -88 c-3 -8 -6 -5 -6 6 -1 11 2 17 5 13 3 -3 4
-12 1 -19z m7173 -55 c0 -38 -10 -73 -21 -73 -5 0 -8 6 -6 13 1 7 -6 11 -17 9
-17 -3 -18 -2 -7 12 7 9 11 23 7 31 -3 9 0 15 9 15 8 0 15 5 15 10 0 6 5 10
10 10 6 0 10 -12 10 -27z m-2140 -23 c0 -5 -4 -10 -10 -10 -5 0 -10 5 -10 10
0 6 5 10 10 10 6 0 10 -4 10 -10z m-1345 -93 c3 -79 30 -114 55 -68 7 13 20
19 40 19 24 -1 30 -5 30 -23 0 -13 7 -29 16 -36 14 -11 18 -10 30 6 8 10 14
29 14 42 0 13 6 23 14 23 9 0 12 -7 9 -20 -3 -12 0 -20 7 -20 10 0 10 -3 0
-15 -7 -9 -8 -15 -2 -15 35 0 7 -94 -32 -110 -12 -5 -16 -9 -10 -9 7 -1 14
-11 17 -23 7 -24 -35 -65 -127 -126 -71 -48 -183 -140 -190 -157 -11 -30 -23
-12 -66 103 -52 137 -58 200 -24 278 12 27 30 68 39 92 22 52 41 70 57 54 20
-20 59 -13 84 14 13 14 24 30 24 36 0 6 3 8 7 4 4 -3 7 -25 8 -49z m-2090 -37
c9 0 14 4 11 8 -3 5 3 20 12 35 13 19 22 23 32 17 12 -8 13 -13 3 -29 -10 -16
-9 -20 2 -25 9 -3 15 -18 15 -34 0 -16 7 -35 15 -42 9 -7 15 -8 15 -2 0 5 11
17 25 26 24 16 27 16 49 -1 18 -13 23 -25 19 -44 -6 -34 19 -53 67 -51 41 3
42 2 55 -70 7 -45 39 -54 49 -13 5 18 11 23 24 18 15 -6 15 -5 3 10 -8 10 -10
21 -6 25 4 4 10 1 12 -5 3 -7 10 -13 17 -13 7 0 19 -12 27 -27 8 -16 17 -30
21 -33 16 -12 80 -168 108 -262 17 -55 30 -102 30 -104 0 -6 -41 4 -174 43
-203 58 -505 133 -541 133 -24 0 -39 7 -53 25 -11 14 -25 25 -30 25 -14 0 -21
27 -17 67 2 25 -2 34 -18 39 -18 6 -18 7 -4 16 10 5 17 15 17 22 0 8 11 21 25
30 21 14 26 14 31 2 6 -17 54 -16 54 1 0 6 -4 15 -10 18 -19 12 -10 23 17 20
64 -7 86 79 23 92 -41 8 -38 23 5 23 28 0 35 4 35 20 0 11 -4 20 -10 20 -5 0
-10 7 -10 15 0 8 -7 15 -15 15 -20 0 -19 16 3 45 l17 23 17 -39 c10 -22 24
-39 33 -39z m1873 -10 c-11 -25 -24 -56 -29 -69 l-10 -23 -25 27 c-29 31 -47
72 -38 86 3 5 14 9 25 9 10 0 19 7 19 15 0 25 32 35 55 17 l22 -16 -19 -46z
m4199 38 c-3 -7 -5 -2 -5 12 0 14 2 19 5 13 2 -7 2 -19 0 -25z m33 7 c0 -8 -4
-15 -10 -15 -5 0 -10 7 -10 15 0 8 5 15 10 15 6 0 10 -7 10 -15z m-2561 -5 c6
8 12 12 14 10 8 -11 29 -112 24 -117 -4 -3 -19 -2 -34 3 -15 4 -36 7 -45 7
-15 0 -17 6 -12 41 8 50 23 73 36 54 6 -10 10 -10 17 2z m-5549 -40 c0 -5 -4
-10 -10 -10 -5 0 -10 5 -10 10 0 6 5 10 10 10 6 0 10 -4 10 -10z m3759 -114
c13 -61 30 -133 38 -160 40 -135 83 -322 83 -364 0 -71 -26 -160 -66 -222 -19
-30 -55 -90 -81 -132 -25 -43 -49 -75 -54 -72 -22 13 -9 134 27 246 59 189 48
306 -41 427 -59 79 -75 114 -75 155 0 46 28 127 49 143 13 9 14 15 4 31 -18
30 11 59 57 59 l36 0 23 -111z m3021 105 c0 -10 -30 -24 -37 -17 -3 3 -2 9 2
15 8 13 35 15 35 2z m30 -21 c0 -5 -4 -10 -10 -10 -5 0 -10 5 -10 10 0 6 5 10
10 10 6 0 10 -4 10 -10z m-3297 -88 c3 -18 1 -65 -5 -105 -13 -92 -3 -125 63
-210 42 -55 52 -77 61 -129 10 -55 8 -74 -11 -146 -12 -46 -28 -98 -35 -115
l-14 -32 -27 60 c-15 33 -50 96 -79 140 -29 44 -73 130 -97 190 -40 100 -44
118 -44 197 0 85 1 87 32 115 17 16 33 40 35 56 4 37 22 39 28 3 4 -24 7 -27
17 -15 6 8 15 27 18 42 l7 27 23 -22 c13 -13 25 -38 28 -56z m2657 -27 c0 -20
41 -60 60 -58 9 2 10 0 3 -3 -7 -3 -13 -23 -13 -44 0 -34 3 -38 30 -43 30 -7
42 -27 15 -27 -7 0 -19 -8 -24 -17 -9 -16 -10 -16 -11 5 0 25 -1 26 -34 11
-20 -9 -28 -9 -40 3 -17 17 -15 60 3 82 7 8 10 20 7 25 -4 5 2 14 11 20 14 8
10 10 -24 11 -24 0 -43 5 -43 10 0 6 7 10 15 10 8 0 15 7 15 15 0 8 7 15 15
15 8 0 15 -7 15 -15z m-2864 -15 c0 -11 -4 -20 -9 -20 -5 0 -7 -10 -4 -21 3
-12 3 -35 0 -50 l-5 -28 -34 40 c-37 45 -41 54 -20 46 9 -4 16 3 20 18 5 20
14 27 46 34 3 0 6 -8 6 -19z m2704 0 c0 -12 -37 -23 -50 -15 -16 10 -12 23 8
27 21 5 42 -1 42 -12z m1148 -3 c2 -10 -3 -14 -15 -13 -10 2 -17 6 -15 9 1 4
2 12 2 18 0 16 25 5 28 -14z m-3959 -64 c17 -35 47 -119 67 -186 20 -67 40
-130 45 -139 22 -42 -18 -12 -115 85 -108 108 -153 178 -142 222 4 16 11 22
21 19 14 -6 21 12 16 40 -3 15 31 33 55 28 17 -3 31 -21 53 -69z m-589 37 c0
-5 -4 -10 -10 -10 -5 0 -10 5 -10 10 0 6 5 10 10 10 6 0 10 -4 10 -10z m4400
-5 c0 -8 -7 -15 -15 -15 -16 0 -20 12 -8 23 11 12 23 8 23 -8z m-4272 -11 c22
14 42 -6 42 -43 0 -50 11 -62 58 -64 28 -1 42 -6 42 -15 0 -7 -4 -10 -10 -7
-14 9 -12 -4 3 -19 12 -12 47 -28 47 -22 0 2 -11 38 -25 80 -30 93 -31 100 -5
93 11 -3 20 0 21 6 0 8 2 8 6 0 2 -7 11 -13 18 -13 18 0 55 -48 55 -70 0 -10
7 -23 16 -30 9 -9 14 -26 12 -48 -2 -27 -10 -39 -32 -52 -16 -8 -34 -24 -40
-35 -6 -11 -15 -23 -20 -27 -5 -3 17 -4 50 -1 l59 5 80 -67 c158 -132 234
-213 273 -291 18 -35 92 -299 92 -326 0 -5 -32 16 -72 47 -40 30 -102 66 -138
81 -36 14 -83 33 -105 42 -59 24 -110 63 -176 136 -33 36 -100 94 -148 130
-49 36 -99 79 -112 97 -12 18 -48 94 -80 171 -31 76 -69 154 -83 172 -29 39
-33 56 -11 56 23 0 29 1 47 11 12 6 19 5 25 -4 4 -8 20 -17 36 -21 23 -5 29
-2 39 19 7 17 14 21 19 14 4 -6 11 -9 17 -5z m3676 -20 c3 -8 2 -12 -4 -9 -6
3 -10 10 -10 16 0 14 7 11 14 -7z m-1089 -25 c12 -18 -3 -22 -20 -5 -14 14
-14 16 -1 16 8 0 18 -5 21 -11z m-244 -108 c12 -14 19 -18 19 -10 0 8 3 10 8
4 13 -19 43 -17 48 3 11 41 104 65 104 26 0 -8 7 -14 15 -14 8 0 15 -5 15 -11
0 -6 7 -17 15 -25 12 -12 13 -20 3 -37 -6 -12 -11 -34 -10 -48 2 -29 -20 -65
-35 -56 -6 4 -8 18 -5 32 5 27 -9 33 -27 11 -9 -11 -9 -15 1 -19 8 -3 5 -6 -7
-7 -11 0 -30 -9 -43 -20 -20 -16 -21 -22 -10 -39 21 -34 0 -43 -66 -29 -56 12
-59 12 -78 -12 -15 -19 -18 -34 -15 -70 3 -25 3 -40 0 -33 -3 8 -15 10 -33 6
-25 -5 -30 -2 -36 21 -7 29 -25 34 -43 12 -9 -10 -9 -20 -2 -34 17 -31 10 -63
-14 -60 -32 4 -45 -10 -45 -50 0 -37 -1 -38 -70 -65 -69 -27 -222 -75 -270
-84 -21 -5 -17 3 31 53 67 71 100 119 164 241 27 51 52 90 57 87 4 -3 14 -2
21 3 6 4 16 8 22 8 15 0 33 44 27 70 -2 14 -8 25 -13 25 -5 0 -9 7 -9 16 0 13
7 15 28 11 40 -8 116 31 120 61 3 20 13 27 35 23 4 -1 17 8 29 19 12 11 18 20
13 20 -5 0 0 6 11 14 17 13 19 13 23 -2 2 -9 12 -28 22 -41z m-4523 14 c-2
-20 -6 -24 -22 -19 -36 12 -86 34 -86 39 0 3 25 5 55 5 52 0 55 -1 53 -25z
m3762 15 c0 -5 -4 -10 -10 -10 -5 0 -10 5 -10 10 0 6 5 10 10 10 6 0 10 -4 10
-10z m-2900 -30 c0 -5 -4 -10 -10 -10 -5 0 -10 5 -10 10 0 6 5 10 10 10 6 0
10 -4 10 -10z m2870 -25 c-10 -12 -10 -15 3 -15 20 0 30 -16 20 -32 -4 -7 -9
-30 -10 -50 -2 -35 -1 -37 20 -29 21 8 22 6 22 -43 0 -56 -10 -74 -67 -123
-39 -33 -231 -103 -284 -103 -26 0 -26 0 -22 68 6 106 60 196 162 271 70 52
106 70 140 71 24 0 27 -2 16 -15z m1074 -36 c-6 -11 -24 -2 -24 11 0 5 7 7 15
4 8 -4 12 -10 9 -15z m-3996 -10 c-11 -6 -24 -6 -34 -1 -12 7 -8 9 18 10 26 1
30 -1 16 -9z m637 -109 c192 -48 563 -168 660 -214 90 -42 128 -72 281 -218
l71 -68 -31 -4 c-17 -3 -50 -7 -72 -10 -23 -3 -95 -21 -160 -40 -234 -68 -265
-67 -500 14 -174 59 -176 61 -196 102 -9 18 -36 76 -61 128 -44 93 -92 155
-152 197 -28 20 -29 23 -18 52 6 17 7 33 3 36 -10 6 29 52 45 54 6 1 64 -12
130 -29z m2659 -3 c21 -23 22 -26 7 -70 -16 -46 -73 -132 -141 -210 -19 -22
-80 -70 -136 -108 -117 -78 -173 -132 -215 -206 -33 -58 -56 -77 -104 -89 -49
-11 -98 -40 -134 -78 -42 -43 -51 -45 -51 -8 0 76 116 236 221 304 27 17 49
35 49 40 0 18 -70 6 -126 -22 -70 -35 -151 -114 -194 -190 l-31 -55 6 60 c8
73 38 159 72 204 37 48 126 102 250 152 111 44 158 69 205 112 30 26 76 26 91
1 11 -20 24 -17 30 5 3 11 17 22 37 26 30 7 31 9 26 40 -5 24 -3 34 9 39 8 3
15 12 15 20 0 10 6 13 15 10 8 -4 15 -1 15 6 0 6 4 9 10 5 5 -3 17 3 27 14 23
25 22 25 47 -2z m66 -16 c0 -6 -4 -13 -10 -16 -5 -3 -10 1 -10 9 0 9 5 16 10
16 6 0 10 -4 10 -9z m-4630 -41 c0 -5 -5 -10 -11 -10 -5 0 -7 5 -4 10 3 6 8
10 11 10 2 0 4 -4 4 -10z m-720 -40 c0 -5 -12 -10 -27 -9 -25 0 -26 1 -8 9 27
12 35 12 35 0z m710 -11 c0 -4 -9 -7 -20 -6 -11 1 -20 7 -20 13 0 7 8 10 20 7
11 -3 20 -9 20 -14z m6078 -71 c-3 -18 -1 -42 5 -53 6 -11 13 -27 17 -35 4 -8
18 -16 31 -16 13 -1 32 -5 42 -9 10 -4 17 -3 17 4 0 6 9 11 19 11 11 0 27 10
35 22 9 12 17 17 17 10 3 -28 41 -112 51 -112 4 0 10 11 14 25 3 14 9 25 11
25 11 0 42 -43 38 -51 -3 -4 -1 -18 4 -31 5 -13 12 -35 15 -50 7 -32 31 -28
40 6 5 21 36 33 36 14 0 -32 38 28 44 69 2 12 13 18 32 19 45 2 74 14 74 31 0
13 4 11 19 -6 13 -14 22 -18 26 -11 5 8 12 6 25 -5 17 -16 40 -17 50 -3 3 4
16 2 30 -5 28 -14 41 -40 14 -30 -13 5 -16 3 -11 -10 4 -11 -1 -18 -14 -22
-28 -9 -24 -19 14 -33 17 -6 37 -20 44 -30 10 -17 9 -18 -14 -14 -23 4 -25 2
-20 -17 3 -14 1 -21 -10 -21 -10 0 -5 -12 17 -40 l32 -40 -29 0 c-16 0 -38 -6
-48 -14 -18 -13 -17 -14 16 -21 69 -13 74 -16 56 -27 -27 -14 -20 -28 14 -28
17 0 28 -4 24 -10 -3 -5 -1 -10 6 -10 8 0 7 -5 -3 -17 -20 -23 -13 -42 13 -36
15 4 18 2 13 -11 -9 -24 3 -19 36 14 l30 31 11 -28 c6 -15 12 -36 15 -47 5
-24 24 -47 35 -40 5 3 6 -3 2 -13 -4 -12 4 -9 25 11 18 16 35 26 39 21 5 -4 2
-10 -4 -12 -18 -7 -16 -23 3 -23 11 0 14 -5 10 -16 -10 -27 4 -36 30 -19 23
15 27 15 53 -4 31 -23 41 -19 41 15 0 28 10 54 20 54 4 0 8 -11 8 -25 0 -14
-4 -25 -9 -25 -5 0 -9 -9 -9 -20 0 -12 -7 -31 -15 -44 -9 -13 -15 -28 -14 -32
3 -20 -2 -34 -11 -34 -6 0 -10 7 -8 17 2 10 -7 19 -24 24 -27 7 -38 -3 -18
-16 18 -11 0 -26 -20 -15 -21 11 -34 -1 -44 -41 -4 -18 -1 -31 10 -39 12 -11
12 -15 2 -21 -7 -5 -20 -6 -30 -3 -9 2 -19 0 -23 -6 -5 -8 -10 -8 -20 0 -7 6
-33 11 -57 12 -41 0 -46 3 -57 33 -6 18 -19 36 -27 39 -8 3 -12 10 -9 16 3 5
2 10 -3 10 -5 0 -12 9 -15 20 -5 20 -47 29 -47 10 0 -5 -4 -10 -10 -10 -5 0
-10 18 -10 40 0 33 -4 40 -19 40 -10 0 -21 -7 -25 -15 -3 -8 -12 -15 -20 -15
-10 0 -13 6 -10 15 7 18 -26 21 -42 5 -13 -13 -44 -2 -44 15 0 8 -9 17 -21 20
-14 5 -19 13 -16 26 4 16 -14 44 -24 35 -2 -2 -19 -6 -37 -9 -23 -5 -32 -3
-31 6 3 27 -2 36 -18 30 -13 -5 -15 -2 -10 17 4 16 0 31 -9 42 -15 16 -18 16
-56 -8 -40 -25 -71 -26 -66 -2 2 7 -5 12 -14 12 -10 -1 -14 4 -11 12 3 8 11
14 18 14 8 0 11 8 8 19 -3 10 0 22 6 25 21 13 12 36 -14 36 -14 0 -25 6 -25
13 0 6 -12 23 -25 36 -24 22 -25 22 -25 3 0 -23 -19 -41 -21 -20 0 7 -7 -2
-15 -21 -10 -23 -18 -31 -25 -24 -13 13 -59 -6 -59 -23 0 -7 -7 -14 -15 -18
-9 -3 -15 0 -15 9 0 19 -16 19 -24 0 -7 -19 -26 -20 -26 -1 0 29 -31 26 -60
-5 -33 -37 -55 -34 -65 10 -4 17 -11 31 -16 31 -6 0 -8 -4 -5 -9 11 -18 -6
-40 -35 -46 -16 -4 -29 -11 -29 -17 0 -7 -4 -7 -13 1 -19 15 -53 -10 -44 -33
4 -11 1 -16 -9 -16 -10 0 -14 6 -11 14 3 8 -5 27 -18 42 l-24 28 -6 -27 c-4
-15 -9 -27 -10 -27 -15 0 -35 15 -35 26 0 8 -9 14 -20 14 -11 0 -20 -4 -20
-10 0 -12 -20 -13 -40 -1 -17 11 -17 75 0 95 9 11 7 16 -9 21 -12 3 -21 15
-21 25 0 30 -18 33 -41 6 -18 -21 -24 -23 -41 -13 -17 10 -22 9 -34 -9 -12
-17 -22 -20 -54 -17 -32 3 -40 1 -40 -12 0 -11 -8 -16 -22 -14 -31 3 -58 -10
-58 -27 0 -8 -6 -14 -14 -14 -7 0 -25 -12 -40 -26 -20 -21 -26 -23 -26 -10 0
18 -13 20 -41 6 -15 -9 -27 -5 -56 15 -43 29 -56 31 -73 10 -12 -15 -57 -11
-94 8 -87 44 -283 56 -475 28 -79 -12 -154 -24 -167 -27 -23 -6 -24 -5 -13 19
16 35 62 57 249 122 249 86 261 89 271 73 5 -7 9 -19 9 -25 0 -7 4 -13 9 -13
5 0 11 -10 14 -22 l6 -22 23 20 c13 12 31 24 40 27 18 6 31 -15 22 -38 -4 -8
-1 -15 5 -15 6 0 11 5 11 10 0 6 5 10 10 10 6 0 10 -9 10 -20 0 -25 38 -27 46
-2 15 49 42 67 51 34 7 -27 44 -43 65 -28 10 8 13 17 8 27 -6 10 -1 18 17 26
22 10 26 10 30 -5 2 -10 13 -23 23 -29 15 -10 19 -8 24 13 4 14 14 24 24 24
22 0 45 -15 40 -25 -5 -13 41 -13 57 -1 8 6 16 28 17 49 2 29 6 36 18 31 54
-23 72 -14 48 25 -15 24 -4 53 17 45 9 -4 15 -14 14 -23 -3 -33 2 -41 25 -41
15 0 26 -7 29 -20 9 -33 27 -22 27 16 0 31 2 35 14 25 12 -10 17 -8 25 8 6 11
11 28 11 38 0 13 6 9 21 -14 22 -35 39 -35 39 -2 0 17 3 18 20 9 11 -6 25 -8
30 -5 6 3 10 -1 10 -10 0 -9 6 -15 13 -12 6 2 11 11 11 20 -2 22 17 17 39 -11
l19 -23 20 21 c18 19 21 20 37 6 10 -9 21 -13 24 -9 4 3 7 1 7 -5 0 -15 36
-52 51 -52 5 0 7 5 4 10 -3 6 1 10 9 10 10 0 13 6 9 17 -4 11 -3 14 5 9 17
-10 15 14 -3 58 -15 36 -12 62 5 51 5 -3 22 -7 39 -9 27 -3 32 0 37 23 3 14
10 37 16 51 7 14 11 28 10 33 -1 4 8 7 19 7 18 0 21 -5 17 -32z m-4698 -19 c0
-5 -7 -9 -15 -9 -9 0 -12 6 -9 15 6 15 24 11 24 -6z m347 -21 c23 -24 46 -54
52 -68 5 -14 25 -60 45 -103 l36 -79 -52 7 c-72 9 -222 80 -237 111 -9 20 -8
24 7 25 9 1 20 1 25 0 12 -2 8 27 -5 32 -7 3 -3 6 10 6 12 1 23 7 24 14 0 6 2
17 3 22 2 6 3 15 4 20 1 13 33 55 41 55 3 0 25 -19 47 -42z m3683 -40 c0 -21
-3 -29 -10 -22 -5 5 -7 19 -4 32 9 31 14 27 14 -10z m2390 22 c11 -7 4 -10
-27 -10 -24 0 -43 5 -43 10 0 13 50 13 70 0z m-1000 -42 c0 -19 -2 -20 -10 -8
-13 19 -13 30 0 30 6 0 10 -10 10 -22z m1195 12 c-3 -5 -11 -10 -16 -10 -6 0
-7 5 -4 10 3 6 11 10 16 10 6 0 7 -4 4 -10z m-8950 -10 c-3 -5 -10 -10 -16
-10 -5 0 -9 5 -9 10 0 6 7 10 16 10 8 0 12 -4 9 -10z m7500 -19 c-3 -6 -14
-11 -23 -11 -13 0 -13 2 4 14 21 15 30 14 19 -3z m1459 0 c3 -5 -1 -11 -9 -15
-9 -3 -15 0 -15 9 0 16 16 20 24 6z m-8929 -31 c-3 -5 -12 -10 -18 -10 -7 0
-6 4 3 10 19 12 23 12 15 0z m2375 -75 c0 -30 2 -55 5 -55 3 0 20 6 38 14 32
13 38 11 121 -29 l87 -42 -38 -11 c-61 -18 -130 -24 -138 -12 -3 6 -10 8 -15
5 -5 -3 -15 1 -23 9 -8 9 -28 13 -50 11 -31 -3 -37 0 -37 16 0 18 4 19 38 13
34 -7 36 -6 23 10 -7 9 -21 15 -30 14 -10 -2 -16 4 -16 17 0 11 -4 26 -8 33
-5 7 -4 12 2 12 6 0 11 8 11 18 0 10 3 22 7 25 16 17 23 3 23 -48z m-1270 15
c0 -5 -2 -10 -4 -10 -3 0 -8 5 -11 10 -3 6 -1 10 4 10 6 0 11 -4 11 -10z
m8070 -61 c0 -5 -7 -9 -15 -9 -15 0 -20 12 -9 23 8 8 24 -1 24 -14z m-2950 -5
c0 -8 -4 -12 -10 -9 -5 3 -10 10 -10 16 0 5 5 9 10 9 6 0 10 -7 10 -16z
m-5700 -63 c0 -6 -4 -13 -10 -16 -5 -3 -10 1 -10 9 0 9 5 16 10 16 6 0 10 -4
10 -9z m1090 -21 c0 -5 -7 -10 -15 -10 -8 0 -15 5 -15 10 0 6 7 10 15 10 8 0
15 -4 15 -10z m1345 -79 c61 -22 146 -53 190 -70 58 -23 104 -33 167 -38 105
-7 161 3 339 61 157 51 262 71 327 61 55 -8 189 -75 222 -110 17 -18 19 -25 9
-25 -8 0 -20 5 -26 11 -7 7 -45 14 -85 16 -83 5 -136 -8 -404 -101 -194 -67
-253 -79 -369 -74 -73 3 -92 1 -102 -11 -11 -14 -12 -14 -13 -1 0 8 -11 25
-25 38 -19 19 -28 21 -44 13 -16 -9 -20 -7 -25 15 -7 27 -26 24 -26 -5 0 -10
-9 -21 -20 -24 -11 -3 -20 -1 -20 4 0 5 -8 9 -19 9 -13 0 -20 -10 -25 -31 l-6
-31 -26 21 c-15 12 -36 21 -48 21 -11 1 -32 7 -46 15 -15 8 -29 10 -36 4 -7
-5 -18 -2 -30 9 -20 19 -43 18 -56 -2 -5 -7 -12 -4 -21 8 -9 12 -20 17 -31 13
-12 -5 -16 -1 -16 18 0 28 -16 41 -33 27 -16 -13 -50 -12 -59 2 -6 8 -11 7
-17 -3 -5 -8 -16 -11 -30 -6 -21 6 -30 -8 -11 -20 13 -8 13 -35 -1 -35 -6 0
-13 9 -16 20 -7 25 -23 26 -24 3 -1 -12 -4 -10 -9 7 -4 14 -8 20 -9 14 -1 -13
-61 -25 -61 -12 0 4 -7 8 -15 8 -8 0 -15 -8 -15 -17 0 -9 -3 -13 -7 -9 -9 9
-11 86 -3 86 14 0 28 47 19 61 -14 23 -10 39 9 39 10 0 22 4 27 8 9 8 116 30
245 52 83 13 154 3 275 -39z m2791 -79 c82 -22 134 -43 134 -56 0 -4 -6 -6
-13 -3 -9 3 -13 -3 -13 -17 1 -20 -3 -21 -54 -16 -126 11 -243 3 -325 -23
-141 -45 -327 -54 -368 -17 -13 11 75 68 136 89 28 10 104 26 167 35 63 10
122 19 130 21 46 9 145 3 206 -13z m-4181 -11 c3 -5 1 -12 -5 -16 -5 -3 -10 1
-10 9 0 18 6 21 15 7z m4495 -11 c8 -5 12 -11 9 -14 -3 -3 -14 1 -25 9 -21 16
-8 20 16 5z m-277 -131 c36 -10 53 -39 22 -39 -8 0 -15 -5 -15 -10 0 -7 -13
-8 -35 -4 -28 5 -35 3 -35 -10 0 -9 -7 -16 -15 -16 -21 0 -19 -13 6 -28 16
-10 18 -16 9 -27 -18 -22 -155 -48 -212 -42 -47 6 -148 52 -148 68 0 12 162
89 218 104 58 16 155 18 205 4z m-1824 -83 c50 -133 66 -233 66 -406 0 -164
-16 -286 -39 -302 -6 -4 -76 -8 -155 -8 l-143 0 6 35 c15 76 23 282 15 349
-12 99 -38 211 -60 264 -11 25 -18 46 -17 47 7 6 139 46 193 59 105 25 111 24
134 -38z m901 2 c-101 -134 -129 -226 -135 -452 -2 -81 -6 -150 -8 -152 -16
-16 -31 269 -18 345 18 110 95 244 167 292 16 10 30 19 31 19 2 0 -15 -24 -37
-52z m1045 2 c3 -6 -1 -7 -9 -4 -18 7 -21 14 -7 14 6 0 13 -4 16 -10z m2268
-34 c-4 -6 -6 -21 -5 -33 3 -20 -14 -41 -25 -30 -10 11 -11 72 0 79 15 9 38
-2 30 -16z m-593 -136 c0 -5 -4 -10 -9 -10 -6 0 -13 5 -16 10 -3 6 1 10 9 10
9 0 16 -4 16 -10z m190 -33 c0 -8 -7 -14 -15 -14 -11 0 -12 4 -4 14 6 7 13 13
15 13 2 0 4 -6 4 -13z m-5683 -33 c-3 -3 -12 -4 -19 -1 -8 3 -5 6 6 6 11 1 17
-2 13 -5z m6188 -24 c-3 -5 -11 -10 -16 -10 -6 0 -7 5 -4 10 3 6 11 10 16 10
6 0 7 -4 4 -10z m-784 -153 c-8 -8 -11 -7 -11 4 0 20 13 34 18 19 3 -7 -1 -17
-7 -23z m-101 -184 c0 -5 -5 -15 -10 -23 -7 -12 -9 -10 -7 8 1 19 17 33 17 15z
m-5373 -345 c-3 -7 -5 -2 -5 12 0 14 2 19 5 13 2 -7 2 -19 0 -25z m11 -65 c-6
-7 -8 -17 -4 -20 4 -4 11 -1 15 6 6 9 9 5 9 -13 0 -19 -6 -26 -19 -26 -15 0
-19 7 -19 33 0 23 5 34 15 34 11 0 12 -4 3 -14z m37 -153 c3 -5 1 -10 -4 -10
-6 0 -11 5 -11 10 0 6 2 10 4 10 3 0 8 -4 11 -10z m5182 -86 c-3 -3 -12 -4
-19 -1 -8 3 -5 6 6 6 11 1 17 -2 13 -5z m-37 -8 c0 -3 -4 -8 -10 -11 -5 -3
-10 -1 -10 4 0 6 5 11 10 11 6 0 10 -2 10 -4z m80 -52 c0 -8 -19 -13 -24 -6
-3 5 1 9 9 9 8 0 15 -2 15 -3z m150 -24 c0 -5 -13 -10 -30 -10 -16 0 -30 5
-30 10 0 6 14 10 30 10 17 0 30 -4 30 -10z"/>
<path d="M7340 4465 c0 -8 5 -15 10 -15 6 0 10 7 10 15 0 8 -4 15 -10 15 -5 0
-10 -7 -10 -15z"/>
<path d="M2503 6640 c0 -47 2 -66 4 -42 2 23 2 61 0 85 -2 23 -4 4 -4 -43z"/>
<path d="M7780 6710 c0 -5 10 -10 23 -10 18 0 19 2 7 10 -19 13 -30 13 -30 0z"/>
<path d="M7786 6682 c-3 -6 -1 -14 5 -17 15 -10 25 3 12 16 -7 7 -13 7 -17 1z"/>
<path d="M7858 6558 c-2 -57 -1 -112 3 -123 4 -11 8 35 8 103 1 67 -1 122 -3
122 -2 0 -6 -46 -8 -102z"/>
<path d="M2437 6529 c5 -19 7 -19 24 -3 23 21 24 19 -5 22 -20 1 -23 -2 -19
-19z"/>
<path d="M2410 6520 c0 -5 5 -10 11 -10 5 0 7 5 4 10 -3 6 -8 10 -11 10 -2 0
-4 -4 -4 -10z"/>
<path d="M9213 5423 c-21 -8 -15 -19 13 -21 16 -1 24 3 22 10 -5 14 -18 18
-35 11z"/>
<path d="M1560 4072 c0 -5 7 -9 15 -9 8 0 15 4 15 9 0 4 -7 8 -15 8 -8 0 -15
-4 -15 -8z"/>
<path d="M8817 3913 c-4 -3 -7 -11 -7 -17 0 -6 5 -5 12 2 6 6 9 14 7 17 -3 3
-9 2 -12 -2z"/>
<path d="M2088 3673 c7 -3 16 -2 19 1 4 3 -2 6 -13 5 -11 0 -14 -3 -6 -6z"/>
<path d="M8616 3633 c-9 -9 -7 -33 3 -33 12 0 22 28 12 34 -5 3 -11 3 -15 -1z"/>
<path d="M2440 3292 c1 -4 7 -18 14 -31 14 -25 31 -15 20 12 -6 16 -34 32 -34
19z"/>
<path d="M2433 3203 c-18 -3 -23 -11 -22 -31 l1 -27 7 25 c6 20 8 22 13 8 5
-11 14 -15 27 -11 12 3 21 7 21 8 0 11 -13 35 -19 34 -3 -1 -16 -4 -28 -6z"/>
<path d="M2424 3123 c-10 -7 -13 -13 -7 -13 7 0 14 -9 18 -19 7 -24 44 -17 40
7 -2 10 -4 22 -4 28 -1 15 -25 13 -47 -3z"/>
<path d="M2442 3048 c-14 -14 -16 -32 -3 -23 5 3 12 1 16 -5 3 -5 1 -10 -4
-10 -6 0 -11 -8 -10 -17 0 -11 3 -13 6 -5 2 6 10 9 16 5 7 -3 9 -3 5 2 -4 4
-3 13 2 20 15 18 -11 50 -28 33z"/>
<path d="M7791 3017 c20 -21 49 -17 49 7 0 11 -10 15 -34 14 -33 -1 -33 -2
-15 -21z"/>
</g>
</svg>
